<mxfile host="Electron" modified="2023-04-28T09:09:44.553Z" agent="Mozilla/5.0 (X11; Linux x86_64) AppleWebKit/537.36 (KHTML, like Gecko) draw.io/21.2.1 Chrome/112.0.5615.87 Electron/24.1.2 Safari/537.36" etag="qw_yDEdfVhAmRiUxTCay" version="21.2.1" type="device">
  <diagram id="R2lEEEUBdFMjLlhIrx00" name="Page-1">
    <mxGraphModel dx="569" dy="517" grid="1" gridSize="10" guides="1" tooltips="1" connect="1" arrows="1" fold="1" page="1" pageScale="1" pageWidth="100" pageHeight="100" background="#242424" math="0" shadow="0" extFonts="Permanent Marker^https://fonts.googleapis.com/css?family=Permanent+Marker">
      <root>
        <mxCell id="0" />
        <mxCell id="1" parent="0" />
        <mxCell id="CBCMD9t05b2a7RlSfvx8-5" value="Entity" style="rounded=0;whiteSpace=wrap;html=1;hachureGap=4;fillColor=#f0a30a;strokeColor=#B5739D;fontColor=#000000;strokeWidth=3;fontSize=21;fontStyle=1" parent="1" vertex="1">
          <mxGeometry x="160" y="230" width="160" height="50" as="geometry" />
        </mxCell>
        <mxCell id="CBCMD9t05b2a7RlSfvx8-10" style="edgeStyle=none;curved=1;rounded=0;orthogonalLoop=1;jettySize=auto;html=1;entryX=0.5;entryY=0;entryDx=0;entryDy=0;endArrow=ERone;startSize=14;endSize=14;sourcePerimeterSpacing=8;targetPerimeterSpacing=8;endFill=0;labelBackgroundColor=#F4F1DE;strokeColor=#3C9E00;fontColor=#393C56;startArrow=ERone;startFill=0;strokeWidth=3;exitX=0.5;exitY=1;exitDx=0;exitDy=0;fillColor=#60a917;" parent="1" source="CBCMD9t05b2a7RlSfvx8-6" target="CBCMD9t05b2a7RlSfvx8-5" edge="1">
          <mxGeometry relative="1" as="geometry">
            <Array as="points">
              <mxPoint x="240" y="170" />
            </Array>
          </mxGeometry>
        </mxCell>
        <mxCell id="CBCMD9t05b2a7RlSfvx8-6" value="Entity" style="rounded=0;whiteSpace=wrap;html=1;hachureGap=4;fillColor=#b1ddf0;strokeColor=#10739e;strokeWidth=3;fontColor=#575757;fontSize=21;fontStyle=1" parent="1" vertex="1">
          <mxGeometry x="160" y="60" width="160" height="50" as="geometry" />
        </mxCell>
        <mxCell id="CBCMD9t05b2a7RlSfvx8-11" value="Entity" style="rounded=0;whiteSpace=wrap;html=1;hachureGap=4;fillColor=#b1ddf0;strokeColor=#10739e;strokeWidth=3;fontColor=#575757;fontSize=21;fontStyle=1" parent="1" vertex="1">
          <mxGeometry x="360" y="60" width="160" height="50" as="geometry" />
        </mxCell>
        <mxCell id="CBCMD9t05b2a7RlSfvx8-12" style="edgeStyle=none;curved=1;rounded=0;orthogonalLoop=1;jettySize=auto;html=1;entryX=0.5;entryY=0;entryDx=0;entryDy=0;endArrow=ERzeroToOne;startSize=14;endSize=14;sourcePerimeterSpacing=8;targetPerimeterSpacing=8;endFill=0;labelBackgroundColor=#F4F1DE;strokeColor=#2D7600;fontColor=#393C56;startArrow=ERone;startFill=0;strokeWidth=3;exitX=0.5;exitY=1;exitDx=0;exitDy=0;fillColor=#60a917;" parent="1" source="CBCMD9t05b2a7RlSfvx8-11" target="CBCMD9t05b2a7RlSfvx8-13" edge="1">
          <mxGeometry relative="1" as="geometry" />
        </mxCell>
        <mxCell id="CBCMD9t05b2a7RlSfvx8-13" value="Entity" style="rounded=0;whiteSpace=wrap;html=1;hachureGap=4;fillColor=#f0a30a;strokeColor=#B5739D;fontColor=#000000;strokeWidth=3;fontSize=21;fontStyle=1" parent="1" vertex="1">
          <mxGeometry x="360" y="230" width="160" height="50" as="geometry" />
        </mxCell>
        <mxCell id="CBCMD9t05b2a7RlSfvx8-14" value="Entity" style="rounded=0;whiteSpace=wrap;html=1;hachureGap=4;fillColor=#b1ddf0;strokeColor=#10739e;strokeWidth=3;fontColor=#575757;fontSize=21;fontStyle=1" parent="1" vertex="1">
          <mxGeometry x="560" y="60" width="160" height="50" as="geometry" />
        </mxCell>
        <mxCell id="CBCMD9t05b2a7RlSfvx8-15" style="edgeStyle=none;curved=1;rounded=0;orthogonalLoop=1;jettySize=auto;html=1;entryX=0.5;entryY=0;entryDx=0;entryDy=0;endArrow=ERzeroToOne;startSize=14;endSize=14;sourcePerimeterSpacing=8;targetPerimeterSpacing=8;endFill=0;labelBackgroundColor=#F4F1DE;strokeColor=#3C9E00;fontColor=#393C56;startArrow=ERzeroToOne;startFill=0;strokeWidth=3;exitX=0.5;exitY=1;exitDx=0;exitDy=0;fillColor=#60a917;" parent="1" source="CBCMD9t05b2a7RlSfvx8-14" target="CBCMD9t05b2a7RlSfvx8-16" edge="1">
          <mxGeometry relative="1" as="geometry" />
        </mxCell>
        <mxCell id="CBCMD9t05b2a7RlSfvx8-16" value="Entity" style="rounded=0;whiteSpace=wrap;html=1;hachureGap=4;fillColor=#f0a30a;strokeColor=#B5739D;fontColor=#000000;strokeWidth=3;fontSize=21;fontStyle=1" parent="1" vertex="1">
          <mxGeometry x="560" y="230" width="160" height="50" as="geometry" />
        </mxCell>
        <mxCell id="CBCMD9t05b2a7RlSfvx8-19" value="0-1:01-1" style="shape=note;whiteSpace=wrap;html=1;backgroundOutline=1;fontColor=#000000;darkOpacity=0.05;fillColor=#FFF9B2;strokeColor=none;fillStyle=solid;direction=west;gradientDirection=north;gradientColor=#FFF2A1;shadow=1;size=20;pointerEvents=1;hachureGap=4;strokeWidth=4;fontStyle=1;fontSize=18;" parent="1" vertex="1">
          <mxGeometry x="560" y="300" width="160" height="50" as="geometry" />
        </mxCell>
        <mxCell id="CBCMD9t05b2a7RlSfvx8-20" value="1-0:1" style="shape=note;whiteSpace=wrap;html=1;backgroundOutline=1;fontColor=#000000;darkOpacity=0.05;fillColor=#FFF9B2;strokeColor=none;fillStyle=solid;direction=west;gradientDirection=north;gradientColor=#FFF2A1;shadow=1;size=20;pointerEvents=1;hachureGap=4;strokeWidth=4;fontStyle=1;fontSize=18;" parent="1" vertex="1">
          <mxGeometry x="355" y="300" width="165" height="50" as="geometry" />
        </mxCell>
        <mxCell id="CBCMD9t05b2a7RlSfvx8-21" value="1:1" style="shape=note;whiteSpace=wrap;html=1;backgroundOutline=1;fontColor=#000000;darkOpacity=0.05;fillColor=#FFF9B2;strokeColor=none;fillStyle=solid;direction=west;gradientDirection=north;gradientColor=#FFF2A1;shadow=1;size=20;pointerEvents=1;hachureGap=4;strokeWidth=4;fontStyle=1;fontSize=18;" parent="1" vertex="1">
          <mxGeometry x="160" y="300" width="160" height="50" as="geometry" />
        </mxCell>
      </root>
    </mxGraphModel>
  </diagram>
</mxfile>
